<svg viewBox="0 0 300 50" fill="none" xmlns="http://www.w3.org/2000/svg">
<rect width="100%" height="100%" rx="4" fill="#FEE500"/>
<path d="M131.076 19.752V19.878C131.076 23.322 129.816 26.15 125.812 28.124L126.442 29.02C130.978 26.766 132.21 23.406 132.21 19.752H131.076ZM126.498 19.752V20.69H131.762V19.752H126.498ZM130.894 22.888L125.868 23.224L126.05 24.26L130.894 23.784V22.888ZM134.254 18.422V31.092H135.43V18.422H134.254ZM135.108 23.56V24.526H137.446V23.56H135.108ZM143.455 19.752V19.878C143.455 23.322 142.195 26.15 138.191 28.124L138.821 29.02C143.357 26.766 144.589 23.406 144.589 19.752H143.455ZM138.877 19.752V20.69H144.141V19.752H138.877ZM143.273 22.888L138.247 23.224L138.429 24.26L143.273 23.784V22.888ZM146.633 18.422V31.092H147.809V18.422H146.633ZM147.487 23.56V24.526H149.825V23.56H147.487ZM155.582 25.59V28.74H156.744V25.59H155.582ZM156.17 19.262C153.496 19.262 151.564 20.564 151.564 22.58C151.564 24.596 153.496 25.898 156.17 25.898C158.844 25.898 160.762 24.596 160.762 22.58C160.762 20.564 158.844 19.262 156.17 19.262ZM156.17 20.186C158.172 20.186 159.642 21.138 159.642 22.58C159.642 24.022 158.172 24.974 156.17 24.974C154.154 24.974 152.684 24.022 152.684 22.58C152.684 21.138 154.154 20.186 156.17 20.186ZM150.458 28.516V29.482H161.924V28.516H150.458ZM165.823 28.572V29.538H177.289V28.572H165.823ZM170.947 25.856V28.978H172.109V25.856H170.947ZM167.209 19.374V20.312H174.727V22.272H167.251V25.744H168.399V23.21H175.875V19.374H167.209ZM167.251 25.254V26.206H176.169V25.254H167.251ZM179.434 19.78V20.718H187.582V19.78H179.434ZM178.202 28.278V29.244H189.64V28.278H178.202ZM186.966 19.78V21.04C186.966 22.608 186.966 24.498 186.462 27.088L187.624 27.2C188.1 24.47 188.1 22.664 188.1 21.04V19.78H186.966ZM199.779 18.45V27.69H200.955V18.45H199.779ZM192.821 29.86V30.812H201.333V29.86H192.821ZM192.821 26.738V30.182H193.969V26.738H192.821ZM194.165 19.318C192.275 19.318 190.861 20.606 190.861 22.44C190.861 24.26 192.275 25.562 194.165 25.562C196.055 25.562 197.455 24.26 197.455 22.44C197.455 20.606 196.055 19.318 194.165 19.318ZM194.165 20.326C195.397 20.326 196.335 21.194 196.335 22.44C196.335 23.672 195.397 24.54 194.165 24.54C192.933 24.54 191.995 23.672 191.995 22.44C191.995 21.194 192.933 20.326 194.165 20.326Z" fill="black" fill-opacity="0.85"/>
<path d="M106.498 17C101.804 17 98 20.0631 98 23.842C98 26.2724 99.5765 28.4011 101.944 29.6197L101.143 32.6672C101.112 32.759 101.138 32.8596 101.204 32.9272C101.25 32.974 101.311 33 101.378 33C101.429 33 101.48 32.9775 101.526 32.9428L104.969 30.5714C105.469 30.6442 105.98 30.6858 106.5 30.6858C111.192 30.6858 115 27.6228 115 23.842C115 20.0613 111.192 17 106.498 17Z" fill="black"/>
</svg>
