<svg width="49" height="49" viewBox="0 0 49 49" fill="none" xmlns="http://www.w3.org/2000/svg">
<mask id="mask0_1_14" style="mask-type:alpha" maskUnits="userSpaceOnUse" x="0" y="0" width="49" height="49">
<rect x="0.632202" y="0.129837" width="48" height="48" fill="#D9D9D9"/>
</mask>
<g mask="url(#mask0_1_14)">
<path d="M24.6323 44.1298C21.8656 44.1298 19.2656 43.6048 16.8323 42.5548C14.3989 41.5048 12.2823 40.0798 10.4823 38.2798C8.68226 36.4798 7.25726 34.3632 6.20726 31.9298C5.15726 29.4965 4.63226 26.8965 4.63226 24.1298C4.63226 21.3632 5.15726 18.7632 6.20726 16.3298C7.25726 13.8965 8.68226 11.7798 10.4823 9.97984C12.2823 8.17984 14.3989 6.75484 16.8323 5.70484C19.2656 4.65484 21.8656 4.12984 24.6323 4.12984C26.0656 4.12984 27.4489 4.2715 28.7823 4.55484C30.1156 4.83817 31.3989 5.2465 32.6323 5.77984V10.2798C31.4656 9.61317 30.2073 9.08817 28.8573 8.70484C27.5073 8.3215 26.0989 8.12984 24.6323 8.12984C20.1989 8.12984 16.4239 9.68817 13.3073 12.8048C10.1906 15.9215 8.63226 19.6965 8.63226 24.1298C8.63226 28.5632 10.1906 32.3382 13.3073 35.4548C16.4239 38.5715 20.1989 40.1298 24.6323 40.1298C29.0656 40.1298 32.8406 38.5715 35.9573 35.4548C39.0739 32.3382 40.6323 28.5632 40.6323 24.1298C40.6323 23.0632 40.5239 22.0298 40.3073 21.0298C40.0906 20.0298 39.7989 19.0632 39.4323 18.1298H43.7323C44.0323 19.0965 44.2573 20.0715 44.4073 21.0548C44.5573 22.0382 44.6323 23.0632 44.6323 24.1298C44.6323 26.8965 44.1073 29.4965 43.0573 31.9298C42.0073 34.3632 40.5823 36.4798 38.7823 38.2798C36.9823 40.0798 34.8656 41.5048 32.4323 42.5548C29.9989 43.6048 27.3989 44.1298 24.6323 44.1298ZM40.6323 14.1298V10.1298H36.6323V6.12984H40.6323V2.12984H44.6323V6.12984H48.6323V10.1298H44.6323V14.1298H40.6323ZM31.6323 22.1298C32.4656 22.1298 33.1739 21.8382 33.7573 21.2548C34.3406 20.6715 34.6323 19.9632 34.6323 19.1298C34.6323 18.2965 34.3406 17.5882 33.7573 17.0048C33.1739 16.4215 32.4656 16.1298 31.6323 16.1298C30.7989 16.1298 30.0906 16.4215 29.5073 17.0048C28.9239 17.5882 28.6323 18.2965 28.6323 19.1298C28.6323 19.9632 28.9239 20.6715 29.5073 21.2548C30.0906 21.8382 30.7989 22.1298 31.6323 22.1298ZM17.6323 22.1298C18.4656 22.1298 19.1739 21.8382 19.7573 21.2548C20.3406 20.6715 20.6323 19.9632 20.6323 19.1298C20.6323 18.2965 20.3406 17.5882 19.7573 17.0048C19.1739 16.4215 18.4656 16.1298 17.6323 16.1298C16.7989 16.1298 16.0906 16.4215 15.5073 17.0048C14.9239 17.5882 14.6323 18.2965 14.6323 19.1298C14.6323 19.9632 14.9239 20.6715 15.5073 21.2548C16.0906 21.8382 16.7989 22.1298 17.6323 22.1298ZM24.6323 35.1298C26.8989 35.1298 28.9573 34.4882 30.8073 33.2048C32.6573 31.9215 33.9989 30.2298 34.8323 28.1298H14.4323C15.2656 30.2298 16.6073 31.9215 18.4573 33.2048C20.3073 34.4882 22.3656 35.1298 24.6323 35.1298Z" fill="#1C1B1F"/>
</g>
</svg>
